{"glyphs":{"":{"ha":1389,"x_min":0,"x_max":0,"o":"m 347 868 l 1042 868 l 1042 955 l 347 955 z m 347 781 l 347 694 l 781 694 l 781 781 z m 1042 694 l 1042 781 l 868 781 l 868 694 z m 347 608 l 347 521 l 521 521 l 521 608 z m 1042 521 l 1042 608 l 608 608 l 608 521 z m 868 347 l 868 434 l 347 434 l 347 347 z "},"":{"ha":1389,"x_min":0,"x_max":0,"o":"m 694 1215 b 174 694 407 1215 174 982 b 694 174 174 407 407 174 b 1215 694 982 174 1215 407 b 694 1215 1215 982 982 1215 z m 694 521 b 521 694 599 521 521 599 b 694 868 521 790 599 868 b 868 694 790 868 868 790 b 694 521 868 599 790 521 z "},"":{"ha":1389,"x_min":0,"x_max":0,"o":"m 868 1128 l 521 1128 l 434 955 l 87 868 l 87 260 l 1302 260 l 1302 955 l 955 955 z m 174 1085 l 174 977 l 347 1020 l 347 1085 z m 694 347 b 391 651 527 347 391 484 b 694 955 391 819 527 955 b 998 651 863 955 998 819 b 694 347 998 484 863 347 z m 694 868 b 477 651 574 868 477 771 b 694 434 477 531 574 434 b 911 651 814 434 911 531 b 694 868 911 771 814 868 z "},"":{"ha":1389,"x_min":0,"x_max":0,"o":"m 694 694 l 694 955 l 87 955 l 87 694 z m 781 347 l 1389 347 l 1389 955 l 781 955 z m 347 347 l 347 608 l 87 608 l 87 347 z m 694 347 l 694 608 l 434 608 l 434 347 z "},"":{"ha":1389,"x_min":0,"x_max":0,"o":"m 347 260 l 1128 694 l 347 1128 z "},"":{"ha":1389,"x_min":0,"x_max":0,"o":"m 608 260 l 781 347 l 781 711 b 955 955 882 746 955 842 b 694 1215 955 1099 838 1215 b 434 955 551 1215 434 1099 b 608 711 434 842 507 746 z "},"":{"ha":1389,"x_min":0,"x_max":0,"o":"m 521 434 l 694 955 l 347 955 l 260 434 z m 781 434 l 1042 434 l 1215 955 l 868 955 z "},"":{"ha":1389,"x_min":0,"x_max":0,"o":"m 590 983 l 651 922 l 743 1014 b 866 1014 777 1048 832 1048 l 927 953 b 927 830 961 919 961 864 l 835 738 l 897 676 l 989 769 b 989 1014 1056 836 1056 946 l 927 1075 b 682 1075 859 1143 750 1143 z m 804 830 l 743 891 l 498 646 l 559 584 z m 375 523 b 375 646 341 557 341 612 l 467 738 l 406 799 l 313 707 b 313 462 246 639 246 529 l 375 400 b 620 400 443 333 553 332 l 712 492 l 651 554 l 559 462 b 436 462 525 428 470 428 z "},"":{"ha":1389,"x_min":0,"x_max":0,"o":"m 174 1215 b 0 1042 87 1215 0 1128 l 0 781 b 174 608 0 694 87 608 l 260 608 l 260 304 l 564 608 l 868 608 b 1042 781 955 608 1042 694 l 1042 1042 b 868 1215 1042 1128 955 1215 z m 1128 781 b 868 521 1128 629 1020 521 l 608 521 l 521 434 l 738 434 l 1042 130 l 1042 434 l 1128 434 b 1302 608 1215 434 1302 521 l 1302 868 b 1128 1042 1302 955 1215 1042 z "},"":{"ha":1389,"x_min":0,"x_max":0,"o":"m 174 521 l 434 521 l 694 260 l 694 1128 l 434 868 l 174 868 z m 940 940 b 1042 694 1003 877 1042 790 b 940 449 1042 598 1003 512 l 1001 387 b 1128 694 1080 466 1128 574 b 1001 1001 1128 814 1080 923 z m 817 817 b 868 694 849 786 868 742 b 817 572 868 646 849 603 l 879 510 b 955 694 926 557 955 622 b 879 879 955 766 926 831 z "},"":{"ha":1389,"x_min":0,"x_max":0,"o":"m 694 1389 b 0 694 311 1389 0 1078 b 475 35 0 388 199 127 b 522 69 510 29 522 51 b 522 187 522 85 522 130 b 288 280 328 145 288 280 b 210 382 256 361 210 382 b 215 424 147 425 215 424 b 321 353 285 419 321 353 b 524 295 383 246 484 277 b 568 388 530 340 548 370 b 252 731 414 405 252 465 b 323 917 252 806 279 869 b 330 1101 316 935 292 1005 b 521 1029 330 1101 388 1120 b 694 1053 576 1045 635 1053 b 868 1029 753 1053 813 1045 b 1059 1101 1001 1120 1059 1101 b 1066 917 1097 1005 1074 935 b 1137 731 1111 869 1137 806 b 821 388 1137 464 975 406 b 867 260 845 367 867 324 b 867 69 867 167 867 92 b 914 36 867 50 879 29 b 1389 694 1190 127 1389 388 b 694 1389 1389 1078 1078 1389 z "},"":{"ha":1389,"x_min":0,"x_max":0,"o":"m 694 1389 b 0 694 315 1389 0 1074 b 694 0 0 315 315 0 b 1389 694 1074 0 1389 315 b 694 1389 1389 1074 1074 1389 z m 694 1302 b 1128 1118 868 1302 1020 1226 b 770 944 1031 1031 857 977 b 564 1291 694 1074 651 1150 b 694 1302 608 1291 651 1302 z m 456 1259 b 673 901 543 1139 608 1031 b 109 836 575 868 304 814 b 456 1259 152 1031 282 1183 z m 1194 1042 b 1302 727 1259 955 1291 846 b 879 727 1204 749 1020 760 b 814 846 857 770 846 803 b 1194 1042 944 911 1085 955 z m 87 738 b 716 814 315 716 467 738 b 770 694 738 770 760 727 b 239 293 575 629 358 488 b 87 694 141 401 87 543 b 87 738 87 705 87 716 z m 1042 195 b 911 629 998 423 922 608 b 1302 629 1053 651 1172 651 b 1042 195 1280 456 1183 293 z m 694 87 b 326 217 553 87 423 130 b 803 608 423 401 608 543 b 944 141 901 391 933 239 b 694 87 868 109 781 87 z "},"":{"ha":1389,"x_min":0,"x_max":0,"o":"m 1389 1125 b 1225 1080 1338 1103 1283 1087 b 1350 1238 1284 1116 1329 1171 b 1170 1169 1295 1205 1234 1181 b 962 1259 1118 1224 1044 1259 b 677 974 804 1259 677 1131 b 684 909 677 951 680 930 b 97 1206 448 921 237 1034 b 58 1063 73 1164 58 1116 b 185 826 58 964 109 878 b 56 862 138 828 94 840 b 56 859 56 861 56 859 b 284 579 56 720 154 605 b 210 569 260 572 235 569 b 156 574 191 569 173 571 b 422 376 192 460 297 378 b 68 254 324 300 201 254 b 0 258 45 254 22 256 b 437 130 126 177 276 130 b 1248 941 961 130 1248 564 b 1246 978 1248 954 1247 966 b 1389 1125 1302 1018 1351 1068 z "},"":{"ha":1389,"x_min":0,"x_max":0,"o":"m 79 0 b 0 79 36 0 0 36 l 0 1310 b 79 1389 0 1353 36 1389 l 1310 1389 b 1389 1310 1353 1389 1389 1353 l 1389 79 b 1310 0 1389 36 1353 0 z m 978 1003 b 978 1013 978 1002 978 1004 b 1064 1103 978 1069 990 1103 b 1195 1103 1133 1103 1195 1103 l 1200 1294 b 1055 1302 1200 1294 1139 1302 b 761 1038 850 1302 761 1175 b 761 863 761 947 761 863 l 610 863 l 610 657 l 761 657 l 761 87 l 978 87 l 978 657 l 1192 657 l 1201 863 l 978 863 z "},"":{"ha":1389,"x_min":0,"x_max":0,"o":"m 802 1003 b 802 1013 802 1002 802 1004 b 888 1103 802 1069 814 1103 b 1019 1103 956 1103 1019 1103 l 1023 1294 b 879 1302 1023 1294 962 1302 b 585 1038 674 1302 585 1175 b 585 863 585 947 585 863 l 434 863 l 434 657 l 585 657 l 585 87 l 802 87 l 802 657 l 1015 657 l 1025 863 l 802 863 z "},"":{"ha":1389,"x_min":0,"x_max":0,"o":"m 694 1302 b 87 694 359 1302 87 1030 b 694 87 87 359 359 87 b 1302 694 1029 87 1302 359 b 694 1302 1302 1030 1029 1302 z m 678 717 l 559 359 l 360 951 b 422 956 393 952 422 956 b 419 1001 452 959 448 1003 b 273 994 419 1001 330 994 b 238 995 263 994 251 994 b 694 1241 336 1143 504 1241 b 1063 1097 837 1241 966 1186 b 1056 1098 1061 1098 1059 1098 b 965 1001 1003 1098 965 1051 b 1018 873 965 956 991 918 b 1063 722 1039 836 1063 790 b 1022 545 1063 675 1045 621 l 967 363 l 770 951 b 832 956 803 952 832 956 b 829 1001 862 959 858 1003 b 683 994 829 1001 740 994 b 539 1001 629 994 539 1001 b 536 956 510 1003 506 958 b 593 951 536 956 564 952 z m 1136 705 b 1178 900 1167 783 1178 845 b 1174 957 1178 921 1176 939 b 1241 694 1216 879 1241 789 b 969 222 1241 493 1132 317 z m 456 203 b 148 694 274 291 148 478 b 195 917 148 774 165 849 z m 704 647 l 872 187 b 876 179 873 184 874 181 b 694 148 819 159 758 148 b 540 170 641 148 589 156 z "},"":{"ha":1389,"x_min":0,"x_max":0,"o":"m 1302 1150 b 1150 1302 1302 1237 1237 1302 l 239 1302 b 87 1150 152 1302 87 1237 l 87 1085 b 391 1215 152 1150 260 1215 b 803 1215 499 1215 803 1215 l 694 1107 l 586 1107 b 716 868 673 1063 716 977 b 586 651 716 781 651 716 b 499 543 521 608 499 586 b 629 412 499 499 586 434 b 781 130 760 304 781 239 b 781 87 781 109 781 109 l 1150 87 b 1302 239 1237 87 1302 152 l 1302 955 l 1128 955 l 1128 781 l 1042 781 l 1042 955 l 868 955 l 868 1042 l 1042 1042 l 1042 1215 l 1128 1215 l 1128 1042 l 1302 1042 z m 391 629 b 543 868 499 629 564 716 b 326 1150 521 1020 434 1128 b 152 890 217 1150 130 1042 b 391 629 174 738 282 629 z m 87 326 b 304 391 152 369 217 391 b 391 391 347 391 369 391 b 326 499 347 412 326 456 b 347 564 326 521 347 543 b 304 564 347 564 326 564 b 87 651 217 564 130 608 z m 651 87 b 651 109 651 87 651 109 b 651 152 651 109 651 130 b 477 326 629 217 564 260 b 369 347 434 326 412 347 b 87 195 239 347 130 282 b 239 87 109 130 174 87 z "},"":{"ha":1389,"x_min":0,"x_max":0,"o":"m 359 871 b 260 964 299 871 260 913 b 361 1057 260 1017 300 1057 b 462 964 422 1057 460 1017 b 360 871 462 913 422 871 z m 916 260 l 916 548 b 825 669 916 621 890 669 b 733 604 776 669 746 636 b 728 561 728 593 728 576 l 728 260 l 549 260 b 549 798 549 260 551 748 l 728 798 l 728 722 b 888 811 751 759 793 811 b 1095 569 1006 811 1095 734 l 1095 260 z m 271 260 l 271 798 l 450 798 l 450 260 z "},"":{"ha":1389,"x_min":0,"x_max":0,"o":"m 260 1302 b 87 1128 165 1302 87 1224 l 87 260 b 260 87 87 165 165 87 l 1128 87 b 1302 260 1224 87 1302 165 l 1302 1128 b 1128 1302 1302 1224 1224 1302 z m 359 871 b 260 964 299 871 260 913 b 361 1057 260 1017 300 1057 b 462 964 422 1057 460 1017 b 360 871 462 913 422 871 z m 916 260 l 916 548 b 825 669 916 621 890 669 b 733 604 776 669 746 636 b 728 561 728 593 728 576 l 728 260 l 549 260 b 549 798 549 260 551 748 l 728 798 l 728 722 b 888 811 751 759 793 811 b 1095 569 1006 811 1095 734 l 1095 260 z m 271 260 l 271 798 l 450 798 l 450 260 z "},"":{"ha":1389,"x_min":0,"x_max":0,"o":"m 452 0 b 538 183 485 52 520 117 b 599 418 549 222 599 418 b 808 312 629 362 715 312 b 1270 899 1083 312 1270 563 b 728 1389 1270 1152 1055 1389 b 116 854 321 1389 116 1097 b 291 528 116 707 172 576 b 334 549 311 519 328 527 b 351 617 338 564 347 602 b 339 665 357 639 355 646 b 283 833 305 706 283 758 b 704 1243 283 1049 445 1243 b 1061 915 934 1243 1061 1103 b 789 460 1061 668 951 460 b 654 625 699 460 633 534 b 730 928 680 733 730 850 b 614 1057 730 998 692 1057 b 449 836 522 1057 449 962 b 476 700 449 755 476 700 b 366 233 476 700 382 303 b 351 37 351 168 349 97 z "},"":{"ha":1389,"x_min":0,"x_max":0,"o":"m 694 1389 b 0 694 311 1389 0 1078 b 416 58 0 410 171 165 b 428 218 414 107 415 165 b 517 596 441 274 517 596 b 495 706 517 596 495 641 b 629 886 495 809 555 886 b 722 782 692 886 722 838 b 661 535 722 718 682 623 b 771 401 644 462 699 401 b 991 770 903 401 991 570 b 702 1037 991 923 888 1037 b 360 704 492 1037 360 880 b 406 568 360 644 378 601 b 416 529 419 553 420 547 b 401 473 412 517 405 486 b 367 456 397 456 383 450 b 225 722 270 496 225 602 b 721 1156 225 919 391 1156 b 1161 758 986 1156 1161 964 b 786 281 1161 485 1009 281 b 616 368 711 281 641 322 b 568 177 616 368 576 208 b 498 28 553 123 524 70 b 694 0 560 10 626 0 b 1389 694 1078 0 1389 311 b 694 1389 1389 1078 1078 1389 z "},"":{"ha":1389,"x_min":0,"x_max":0,"o":"m 673 694 b 391 412 673 538 547 412 b 109 694 235 412 109 538 b 391 977 109 850 235 977 b 673 694 547 977 673 850 z m 1280 694 b 998 412 1280 538 1154 412 b 716 694 842 412 716 538 b 998 977 716 850 842 977 b 1280 694 1154 977 1280 850 z "},"":{"ha":1389,"x_min":0,"x_max":0,"o":"m 87 935 b 264 1092 147 987 206 1040 b 444 1200 344 1160 404 1196 b 619 1008 539 1209 597 1145 b 668 732 642 860 659 768 b 758 548 695 609 725 548 b 873 667 783 548 822 588 b 954 849 923 747 951 807 b 873 952 962 918 934 952 b 783 933 843 952 813 946 b 1125 1215 842 1126 957 1221 b 1301 974 1250 1212 1309 1131 b 1054 493 1296 857 1213 697 b 634 174 888 280 749 174 b 454 368 563 174 503 238 b 356 725 422 487 389 606 b 239 919 320 854 281 919 b 144 862 230 919 198 900 z "},"":{"ha":1389,"x_min":0,"x_max":0,"o":"m 347 1128 b 87 868 203 1128 87 1012 l 87 521 b 347 260 87 377 203 260 l 1042 260 b 1302 521 1185 260 1302 377 l 1302 868 b 1042 1128 1302 1012 1185 1128 z m 521 955 l 955 694 l 521 434 z "},"":{"ha":1389,"x_min":0,"x_max":0,"o":"m 740 995 l 1029 995 l 1029 804 l 740 804 l 740 492 b 751 357 740 422 744 377 b 793 309 759 337 772 321 b 885 285 820 293 850 285 b 1069 345 947 285 1008 304 l 1069 153 b 928 102 1017 129 970 111 b 791 87 886 92 840 87 b 644 108 736 87 686 94 b 534 168 601 122 565 142 b 472 251 505 194 484 222 b 454 378 460 280 454 322 l 454 804 l 320 804 l 320 976 b 443 1043 368 991 409 1014 b 525 1147 477 1072 504 1107 b 567 1302 545 1187 559 1240 l 740 1302 z "},"":{"ha":1389,"x_min":0,"x_max":0,"o":"m 347 1302 b 87 1042 203 1302 87 1185 l 87 955 l 349 955 b 694 1128 429 1060 553 1128 b 1040 955 836 1128 960 1060 l 1302 955 l 1302 1042 b 1042 1302 1302 1185 1185 1302 z m 1042 1042 b 955 1128 994 1042 955 1080 b 1042 1215 955 1177 994 1215 b 1128 1128 1090 1215 1128 1177 b 1042 1042 1128 1080 1090 1042 z m 694 347 b 1042 694 886 347 1042 503 b 694 1042 1042 886 886 1042 b 347 694 503 1042 347 886 b 694 347 347 503 503 347 z m 694 955 b 955 694 838 955 955 838 b 694 434 955 551 838 434 b 434 694 551 434 434 551 b 694 955 434 838 551 955 z m 87 868 l 87 347 b 347 87 87 203 203 87 l 1042 87 b 1302 347 1185 87 1302 203 l 1302 868 l 1092 868 b 1128 694 1115 815 1128 756 b 694 260 1128 455 935 260 b 260 694 455 260 260 455 b 297 868 260 756 274 815 z "},"":{"ha":1389,"x_min":0,"x_max":0,"o":"m 347 1042 b 174 868 252 1042 174 964 l 174 608 b 347 434 174 512 252 434 l 434 434 l 434 130 l 738 434 l 1042 434 b 1215 608 1137 434 1215 512 l 1215 868 b 1042 1042 1215 964 1137 1042 z "},"":{"ha":1389,"x_min":0,"x_max":0,"o":"m 434 694 l 347 694 l 434 868 l 868 868 l 868 955 l 564 955 l 521 1042 l 260 1042 l 260 347 l 955 347 l 1128 781 l 477 781 z "},"":{"ha":1389,"x_min":0,"x_max":0,"o":"m 174 521 l 521 174 l 1042 694 l 1042 1042 l 694 1042 z m 868 781 b 781 868 820 781 781 820 b 868 955 781 916 820 955 b 955 868 916 955 955 916 b 868 781 955 820 916 781 z "},"":{"ha":1389,"x_min":0,"x_max":0,"o":"m 651 1215 b 174 738 387 1215 174 1002 b 651 260 174 474 387 260 b 1128 738 915 260 1128 474 b 651 1215 1128 1002 915 1215 z m 651 347 b 260 738 435 347 260 522 b 651 1128 260 954 435 1128 b 1042 738 867 1128 1042 954 b 651 347 1042 522 867 347 z m 608 1042 l 608 720 l 836 492 l 897 554 l 694 756 l 694 1042 z "},"":{"ha":1389,"x_min":0,"x_max":0,"o":"m 694 781 b 868 955 790 781 868 859 b 694 1128 868 1050 790 1128 b 521 955 599 1128 521 1050 b 694 781 521 859 599 781 z m 608 694 b 347 434 464 694 347 578 l 347 260 l 1042 260 l 1042 434 b 781 694 1042 578 925 694 z "},"":{"ha":1389,"x_min":0,"x_max":0,"o":"m 955 1215 l 868 1215 l 868 1128 l 434 1128 l 434 1215 l 347 1215 l 347 1128 l 174 1128 l 174 260 l 1128 260 l 1128 1128 l 955 1128 z m 347 347 b 260 434 299 347 260 386 l 260 868 b 347 955 260 916 299 955 l 955 955 b 1042 868 1003 955 1042 916 l 1042 434 b 955 347 1042 386 1003 347 z m 564 868 b 521 825 541 868 521 848 b 564 781 521 801 541 781 l 608 781 l 608 477 b 651 434 608 454 627 434 b 694 477 675 434 694 454 l 694 825 b 651 868 694 848 675 868 z "},"":{"ha":1389,"x_min":0,"x_max":0,"o":"m 955 1215 l 868 1215 l 868 1128 l 434 1128 l 434 1215 l 347 1215 l 347 1128 l 174 1128 l 174 260 l 1128 260 l 1128 1128 l 955 1128 z m 347 347 b 260 434 299 347 260 386 l 260 868 b 347 955 260 916 299 955 l 955 955 b 1042 868 1003 955 1042 916 l 1042 434 b 955 347 1042 386 1003 347 z m 564 868 b 521 825 541 868 521 848 b 564 781 521 801 541 781 l 682 781 l 609 488 b 641 435 603 465 617 441 b 693 467 664 429 688 444 l 780 814 b 781 825 781 818 781 821 b 781 826 781 825 781 825 b 781 827 781 827 781 827 b 781 828 781 827 781 827 b 781 829 781 828 781 829 b 742 868 779 850 762 866 b 740 868 741 868 741 868 b 739 868 739 868 739 868 b 738 868 739 868 739 868 z "},"":{"ha":1389,"x_min":0,"x_max":0,"o":"m 955 1215 l 868 1215 l 868 1128 l 434 1128 l 434 1215 l 347 1215 l 347 1128 l 174 1128 l 174 260 l 1128 260 l 1128 1128 l 955 1128 z m 347 347 b 260 434 299 347 260 386 l 260 868 b 347 955 260 916 299 955 l 955 955 b 1042 868 1003 955 1042 916 l 1042 434 b 955 347 1042 386 1003 347 z m 608 781 l 608 868 l 521 868 l 521 781 z m 781 781 l 781 868 l 694 868 l 694 781 z m 955 781 l 955 868 l 868 868 l 868 781 z m 434 608 l 434 694 l 347 694 l 347 608 z m 608 608 l 608 694 l 521 694 l 521 608 z m 781 608 l 781 694 l 694 694 l 694 608 z m 955 608 l 955 694 l 868 694 l 868 608 z m 434 434 l 434 521 l 347 521 l 347 434 z m 608 434 l 608 521 l 521 521 l 521 434 z m 781 434 l 781 521 l 694 521 l 694 434 z "},"":{"ha":1389,"x_min":0,"x_max":0,"o":"m 868 1302 l 868 1128 l 651 911 l 391 911 l 391 825 l 825 391 l 911 391 l 911 651 l 1128 868 l 1302 868 l 1302 955 l 955 1302 z m 174 260 l 260 174 l 608 521 l 521 608 z "},"":{"ha":1389,"x_min":0,"x_max":0,"o":"m 1128 174 l 1215 260 l 880 596 b 955 825 926 661 955 739 b 564 1215 955 1040 780 1215 b 174 825 349 1215 174 1040 b 564 434 174 609 349 434 b 793 509 650 434 728 463 z m 564 521 b 260 825 397 521 260 657 b 564 1128 260 992 397 1128 b 868 825 732 1128 868 992 b 564 521 868 657 732 521 z "},"":{"ha":1389,"x_min":0,"x_max":0,"o":"m 1128 174 l 1215 260 l 880 596 b 955 825 926 661 955 739 b 564 1215 955 1040 780 1215 b 174 825 349 1215 174 1040 b 564 434 174 609 349 434 b 793 509 650 434 728 463 z m 564 521 b 260 825 397 521 260 657 b 564 1128 260 992 397 1128 b 868 825 732 1128 868 992 b 564 521 868 657 732 521 z m 781 781 l 781 868 l 347 868 l 347 781 z "},"":{"ha":1389,"x_min":0,"x_max":0,"o":"m 880 596 b 955 825 926 661 955 739 b 564 1215 955 1040 780 1215 b 174 825 349 1215 174 1040 b 564 434 174 609 349 434 b 793 509 650 434 728 463 l 1128 174 l 1215 260 z m 260 825 b 564 1128 260 992 397 1128 b 868 825 732 1128 868 992 b 564 521 868 657 732 521 b 260 825 397 521 260 657 z m 608 868 l 608 1042 l 521 1042 l 521 868 l 347 868 l 347 781 l 521 781 l 521 608 l 608 608 l 608 781 l 781 781 l 781 868 z "},"":{"ha":1389,"x_min":0,"x_max":0,"o":"m 0 694 l 344 351 b 694 203 433 260 557 203 b 1046 351 832 203 956 260 l 1389 694 l 1045 1038 b 694 1185 956 1129 832 1185 b 343 1038 557 1185 433 1129 z m 184 694 l 437 947 b 694 1055 505 1017 597 1055 b 954 946 792 1055 884 1017 l 1205 694 l 952 442 b 694 334 884 372 792 334 b 435 443 597 334 505 372 z m 694 955 b 434 694 551 955 434 838 b 694 434 434 551 551 434 b 955 694 838 434 955 551 b 694 955 955 838 838 955 z m 781 694 b 694 781 733 694 694 733 b 781 868 694 829 733 868 b 868 781 829 868 868 829 b 781 694 868 733 829 694 z "},"":{"ha":1389,"x_min":0,"x_max":0,"o":"m 937 1121 b 694 1185 865 1162 783 1185 b 343 1038 557 1185 433 1129 l 0 694 l 255 439 l 347 532 l 184 694 l 437 947 b 694 1055 505 1017 597 1055 b 840 1024 745 1055 795 1044 z m 230 291 l 1098 1159 l 1159 1098 l 291 230 z m 761 945 b 694 955 740 951 718 955 b 434 694 551 955 434 838 b 444 628 434 671 438 649 z m 1042 858 l 1205 694 l 952 442 b 694 334 884 372 792 334 b 549 365 644 334 594 345 l 452 268 b 694 203 524 227 606 203 b 1046 351 832 203 956 260 l 1389 694 l 1134 949 z m 628 444 b 694 434 649 438 671 434 b 955 694 838 434 955 551 b 945 761 955 718 951 740 z "},"":{"ha":1389,"x_min":0,"x_max":0,"o":"m 955 1042 l 738 825 l 521 1042 l 434 955 l 651 738 l 434 521 l 521 434 l 738 651 l 955 434 l 1042 521 l 825 738 l 1042 955 z "},"":{"ha":1389,"x_min":0,"x_max":0,"o":"m 1302 1389 l 738 825 l 174 1389 l 87 1302 l 651 738 l 87 174 l 174 87 l 738 651 l 1302 87 l 1389 174 l 825 738 l 1389 1302 z "},"":{"ha":1389,"x_min":0,"x_max":0,"o":"m 521 1128 b 434 1042 473 1128 434 1090 l 260 955 l 260 868 l 1042 868 l 1042 955 l 868 1042 b 781 1128 868 1090 829 1128 z m 564 955 b 521 998 541 955 521 975 b 564 1042 521 1022 541 1042 l 738 1042 b 781 998 762 1042 781 1022 b 738 955 781 975 762 955 z m 868 347 l 781 347 l 781 825 l 694 825 l 694 347 l 608 347 l 608 825 l 521 825 l 521 347 l 434 347 l 434 825 l 347 825 l 347 347 b 434 260 347 299 386 260 l 868 260 b 955 347 916 260 955 299 l 955 825 l 868 825 z "},"":{"ha":1389,"x_min":0,"x_max":0,"o":"m 817 780 l 1215 780 l 892 557 l 1017 194 l 694 419 l 372 194 l 496 557 l 174 781 l 572 781 l 694 1143 z "},"":{"ha":1389,"x_min":0,"x_max":0,"o":"m 260 694 l 347 608 l 694 955 l 1042 608 l 1128 694 l 694 1128 z m 434 347 l 608 347 l 608 608 l 781 608 l 781 347 l 955 347 l 955 608 l 694 868 l 434 608 z "},"":{"ha":1389,"x_min":0,"x_max":0,"o":"m 1215 1007 l 1215 1042 l 174 1042 l 174 1007 l 694 660 z m 174 903 l 174 486 l 486 694 z m 903 694 l 1215 486 l 1215 903 z m 694 555 l 564 642 l 174 382 l 174 347 l 1215 347 l 1215 382 l 825 642 z "},"":{"ha":1389,"x_min":0,"x_max":0,"o":"m 260 564 l 260 260 l 564 260 l 1172 868 l 868 1172 z m 933 977 l 530 573 l 465 638 l 868 1042 z m 638 465 l 573 530 l 977 933 l 1042 868 z m 347 521 l 434 608 l 608 434 l 521 347 z "},"":{"ha":1389,"x_min":0,"x_max":0,"o":"m 868 998 l 868 694 l 434 694 l 434 1172 l 174 911 l 174 434 l 868 434 l 868 130 l 1302 564 z "},"":{"ha":1389,"x_min":0,"x_max":0,"o":"m 1302 87 b 87 1307 1302 760 758 1307 l 87 1073 b 1068 87 628 1073 1068 631 z m 889 87 b 87 892 889 531 529 892 l 87 659 b 489 492 239 659 381 600 b 655 87 596 384 655 240 z m 260 434 b 87 260 165 434 87 356 b 260 87 87 165 165 87 b 434 260 356 87 434 165 b 260 434 434 356 356 434 z "},"":{"ha":1389,"x_min":0,"x_max":0,"o":"m 839 1160 b 551 1160 760 1289 629 1289 l 35 321 b 167 87 -44 193 15 87 l 1223 87 b 1354 321 1374 87 1433 193 z m 608 868 b 694 955 608 916 646 955 b 781 868 743 955 781 916 l 781 608 b 694 521 781 559 743 521 b 608 608 646 521 608 559 z m 694 260 b 608 347 646 260 608 299 b 694 434 608 395 646 434 b 781 347 743 434 781 395 b 694 260 781 299 743 260 z "},"":{"ha":1389,"x_min":0,"x_max":0,"o":"m 87 868 l 296 868 b 694 1128 363 1021 517 1128 b 1000 1000 814 1128 922 1079 b 1000 878 1034 966 1034 911 b 878 878 966 844 911 843 b 694 955 830 924 766 955 b 442 760 574 955 472 872 b 358 694 433 722 399 694 l 87 694 z m 868 694 b 694 521 868 599 791 521 b 521 694 599 521 521 599 b 694 868 521 791 599 868 b 868 694 791 868 868 791 z m 1093 521 b 694 260 1025 368 872 260 b 389 389 574 260 467 310 b 389 511 355 422 355 477 b 512 512 422 545 478 546 b 694 434 559 465 623 434 b 947 629 815 434 917 517 b 1031 694 956 667 990 694 l 1302 694 l 1302 521 z "},"":{"ha":1389,"x_min":0,"x_max":0,"o":"m 521 651 b 651 521 521 579 579 521 b 781 651 723 521 781 579 l 781 958 l 694 958 l 694 651 b 651 608 694 627 675 608 b 608 651 627 608 608 627 l 608 998 b 738 1128 608 1070 666 1128 b 868 998 810 1128 868 1070 l 868 564 b 651 347 868 444 771 347 b 434 564 531 347 434 444 l 434 781 l 347 781 l 347 564 b 651 260 347 397 484 260 b 955 564 819 260 955 397 l 955 998 b 738 1215 955 1118 858 1215 b 521 998 618 1215 521 1118 z "},"":{"ha":1389,"x_min":0,"x_max":0,"o":"m 651 273 l 927 548 b 1042 825 998 618 1042 717 b 651 1215 1042 1040 867 1215 b 260 825 435 1215 260 1040 b 375 548 260 717 304 618 z m 651 608 b 434 825 531 608 434 705 b 651 1042 434 945 531 1042 b 868 825 771 1042 868 945 b 651 608 868 705 771 608 z "},"":{"ha":1389,"x_min":0,"x_max":0,"o":"m 651 673 l 499 803 l 412 716 l 608 434 l 694 434 l 1042 955 l 955 1020 z "},"":{"ha":1389,"x_min":0,"x_max":0,"o":"m 0 1042 l 1389 1042 l 1389 1215 l 0 1215 z m 1389 608 l 1389 781 l 0 781 l 0 608 z m 1389 174 l 1389 347 l 0 347 l 0 174 z "},"":{"ha":1389,"x_min":0,"x_max":0,"o":"m 260 868 l 1128 868 l 1128 955 l 260 955 z m 1128 347 l 694 781 l 260 347 z "},"":{"ha":1389,"x_min":0,"x_max":0,"o":"m 260 608 l 1042 608 l 1042 781 l 260 781 z "},"":{"ha":1389,"x_min":0,"x_max":0,"o":"m 260 347 l 1042 347 l 1042 1042 l 260 1042 z m 347 434 l 347 868 l 955 868 l 955 434 z "},"":{"ha":1389,"x_min":0,"x_max":0,"o":"m 309 1019 l 56 564 l 391 564 l 391 391 l 477 391 l 477 651 l 204 651 l 385 977 z m 1297 977 l 1221 1019 l 968 564 l 1302 564 l 1302 391 l 1389 391 l 1389 651 l 1115 651 z m 738 911 b 521 694 618 911 521 814 b 738 477 521 575 618 477 b 955 694 858 477 955 575 b 738 911 955 814 858 911 z m 738 564 b 608 694 666 564 608 623 b 738 825 608 766 666 825 b 868 694 810 825 868 766 b 738 564 868 623 810 564 z "},"":{"ha":1389,"x_min":0,"x_max":0,"o":"m 434 1215 l 174 955 l 174 434 l 434 174 l 955 174 l 1215 434 l 1215 955 l 955 1215 z m 608 955 b 694 1042 608 1003 646 1042 b 781 955 743 1042 781 1003 l 781 694 b 694 608 781 646 743 608 b 608 694 646 608 608 646 z m 694 347 b 608 434 646 347 608 386 b 694 521 608 482 646 521 b 781 434 743 521 781 482 b 694 347 781 386 743 347 z "},"":{"ha":1389,"x_min":0,"x_max":0,"o":"m 521 1215 b 434 1128 473 1215 434 1177 l 260 1128 l 260 260 l 1042 260 l 1042 1128 l 868 1128 b 781 1215 868 1177 829 1215 z m 738 1128 b 781 1085 762 1128 781 1109 b 738 1042 781 1061 762 1042 l 564 1042 b 521 1085 541 1042 521 1061 b 564 1128 521 1109 541 1128 z m 347 347 l 347 1042 l 434 1042 l 434 955 l 868 955 l 868 1042 l 955 1042 l 955 347 z m 477 868 b 434 825 454 868 434 848 b 477 781 434 801 454 781 b 521 825 501 781 521 801 b 477 868 521 848 501 868 z m 868 781 l 868 868 l 608 868 l 608 781 z m 477 694 b 434 651 454 694 434 675 b 477 608 434 627 454 608 b 521 651 501 608 521 627 b 477 694 521 675 501 694 z m 868 608 l 868 694 l 608 694 l 608 608 z m 477 521 b 434 477 454 521 434 501 b 477 434 434 454 454 434 b 521 477 501 434 521 454 b 477 521 521 501 501 521 z m 868 434 l 868 521 l 608 521 l 608 434 z "},"":{"ha":1389,"x_min":0,"x_max":0,"o":"m 1113 694 b 1128 781 1122 722 1128 751 b 868 1042 1128 925 1012 1042 b 632 890 763 1042 673 979 b 477 955 593 930 538 955 b 260 738 357 955 260 858 b 265 694 260 723 262 709 l 260 694 b 87 521 165 694 87 616 b 260 347 87 425 165 347 l 1128 347 b 1302 521 1224 347 1302 425 b 1128 694 1302 616 1224 694 z "},"":{"ha":1389,"x_min":0,"x_max":0,"o":"m 971 1168 b 726 1168 904 1235 794 1235 l 568 1010 b 568 765 501 942 501 832 l 569 764 l 260 456 l 260 260 l 456 260 l 764 569 b 1007 571 832 504 940 505 l 1165 729 b 1165 974 1232 797 1232 906 z m 738 922 l 846 1031 l 1020 857 l 911 749 z "},"":{"ha":1389,"x_min":0,"x_max":0,"o":"m 694 868 b 521 694 599 868 521 790 b 694 521 521 599 599 521 b 868 694 790 521 868 599 b 694 868 868 790 790 868 z "},"":{"ha":1389,"x_min":0,"x_max":0,"o":"m 635 927 l 868 694 l 260 694 l 260 608 l 868 608 l 635 375 l 694 317 l 1029 651 l 694 985 z "},"":{"ha":1389,"x_min":0,"x_max":0,"o":"m 753 927 l 521 694 l 1128 694 l 1128 608 l 521 608 l 753 375 l 694 317 l 360 651 l 694 985 z "},"":{"ha":1389,"x_min":0,"x_max":0,"o":"m 651 564 l 347 868 l 260 781 l 651 391 l 1042 781 l 955 868 z "},"":{"ha":1389,"x_min":0,"x_max":0,"o":"m 260 521 l 347 434 l 651 738 l 955 434 l 1042 521 l 651 911 z "},"":{"ha":1389,"x_min":0,"x_max":0,"o":"m 0 0 l 608 0 l 0 608 z "},"":{"ha":1389,"x_min":0,"x_max":0,"o":"m 1389 0 l 1389 608 l 781 0 z "},"":{"ha":1389,"x_min":0,"x_max":0,"o":"m 260 868 l 1128 868 l 1128 955 l 260 955 z m 1128 347 l 694 781 l 260 347 z "},"":{"ha":1389,"x_min":0,"x_max":0,"o":"m 434 955 l 434 1042 l 347 1042 l 347 955 z m 608 955 l 608 1042 l 521 1042 l 521 955 z m 781 955 l 781 1042 l 694 1042 l 694 955 z m 868 955 l 955 955 l 955 1042 l 868 1042 z m 434 781 l 434 868 l 347 868 l 347 781 z m 608 781 l 608 868 l 521 868 l 521 781 z m 781 781 l 781 868 l 694 868 l 694 781 z m 955 781 l 955 868 l 868 868 l 868 781 z m 434 608 l 434 694 l 347 694 l 347 608 z m 608 608 l 608 694 l 521 694 l 521 608 z m 781 608 l 781 694 l 694 694 l 694 608 z m 955 608 l 955 694 l 868 694 l 868 608 z m 434 434 l 434 521 l 347 521 l 347 434 z m 608 434 l 608 521 l 521 521 l 521 434 z m 781 434 l 781 521 l 694 521 l 694 434 z m 955 434 l 955 521 l 868 521 l 868 434 z "},"":{"ha":1389,"x_min":0,"x_max":0,"o":"m 521 1215 b 347 1042 425 1215 347 1137 l 347 347 b 521 174 347 252 425 174 l 868 174 b 1042 347 964 174 1042 252 l 1042 1042 b 868 1215 1042 1137 964 1215 z m 434 521 l 434 1042 l 955 1042 l 955 521 z m 694 260 b 608 347 646 260 608 299 b 694 434 608 395 646 434 b 781 347 743 434 781 395 b 694 260 781 299 743 260 z "},"":{"ha":1389,"x_min":0,"x_max":0,"o":"m 521 1215 b 347 1042 425 1215 347 1137 l 347 955 l 434 955 l 434 1042 l 955 1042 l 955 521 l 434 521 l 434 608 l 347 608 l 347 347 b 521 174 347 252 425 174 l 868 174 b 1042 347 964 174 1042 252 l 1042 1042 b 868 1215 1042 1137 964 1215 z m 781 781 l 521 955 l 521 868 l 174 868 l 174 694 l 521 694 l 521 608 z m 694 260 b 608 347 646 260 608 299 b 694 434 608 395 646 434 b 781 347 743 434 781 395 b 694 260 781 299 743 260 z "},"":{"ha":1389,"x_min":0,"x_max":0,"o":"m 434 868 l 608 868 l 608 1128 b 521 1215 608 1177 569 1215 b 434 1128 473 1215 434 1177 z m 781 868 l 955 868 l 955 1128 b 868 1215 955 1177 916 1215 b 781 1128 820 1215 781 1177 z m 608 174 l 781 174 l 781 356 b 1128 781 979 396 1128 571 l 260 781 b 608 356 260 571 410 396 z "},"":{"ha":1389,"x_min":0,"x_max":0,"o":"m 1113 694 b 1128 781 1122 722 1128 751 b 868 1042 1128 925 1012 1042 b 632 890 763 1042 673 979 b 477 955 593 930 538 955 b 260 738 357 955 260 858 b 264 694 260 723 262 709 l 260 694 b 87 521 165 694 87 616 b 260 347 87 425 165 347 l 521 347 l 521 521 l 868 521 l 868 347 l 1128 347 b 1302 521 1224 347 1302 425 b 1128 694 1302 616 1224 694 z m 608 434 l 608 260 l 434 260 l 694 0 l 955 260 l 781 260 l 781 434 z "},"":{"ha":1389,"x_min":0,"x_max":0,"o":"m 1113 694 b 1128 781 1122 722 1128 751 b 868 1042 1128 925 1012 1042 b 632 890 763 1042 673 979 b 477 955 593 930 538 955 b 260 738 357 955 260 858 b 264 694 260 723 262 709 l 260 694 b 87 521 165 694 87 616 b 260 347 87 425 165 347 l 608 347 l 608 521 l 434 521 l 694 781 l 955 521 l 781 521 l 781 347 l 1128 347 b 1302 521 1224 347 1302 425 b 1128 694 1302 616 1224 694 z "},"":{"ha":1389,"x_min":0,"x_max":0,"o":"m 694 1042 l 981 1042 l 608 669 l 669 608 l 1042 981 l 1042 694 l 1128 694 l 1128 1128 l 694 1128 z m 434 434 l 434 868 l 608 868 l 694 955 l 347 955 l 347 347 l 955 347 l 955 694 l 868 608 l 868 434 z "},"":{"ha":1389,"x_min":0,"x_max":0,"o":"m 347 1128 l 347 260 l 1042 260 l 1042 868 l 781 1128 z m 434 347 l 434 1042 l 694 1042 l 694 781 l 955 781 l 955 347 z m 919 868 l 781 868 l 781 1006 z "},"":{"ha":1389,"x_min":0,"x_max":0,"o":"m 1128 434 l 1128 1215 l 434 1215 b 260 1042 338 1215 260 1137 l 260 347 b 434 174 260 252 338 174 l 1128 174 l 1128 260 l 1085 260 b 998 347 1037 260 998 299 b 1085 434 998 395 1037 434 z m 989 434 b 955 347 968 411 955 380 b 989 260 955 314 968 283 l 434 260 b 347 347 386 260 347 299 b 434 434 347 395 386 434 z "},"":{"ha":1389,"x_min":0,"x_max":0,"o":"m 738 651 l 87 0 l 1389 0 z "},"":{"ha":1389,"x_min":0,"x_max":0,"o":"m 651 738 l 0 87 l 0 1389 z "},"":{"ha":1389,"x_min":0,"x_max":0,"o":"m 738 738 l 87 1389 l 1389 1389 z "},"":{"ha":1389,"x_min":0,"x_max":0,"o":"m 738 738 l 1389 87 l 1389 1389 z "}}}
